<?xml version="1.0" encoding="utf-8"?>
<!-- Generator: Adobe Illustrator 21.1.0, SVG Export Plug-In . SVG Version: 6.00 Build 0)  -->
<svg version="1.1" id="Layer_1" xmlns="http://www.w3.org/2000/svg" xmlns:xlink="http://www.w3.org/1999/xlink" x="0px" y="0px"
	 viewBox="0 0 233.6 364.2" style="enable-background:new 0 0 233.6 364.2;" xml:space="preserve">
<style type="text/css">
	.st0{fill:#2E3192;}
	.st1{fill:none;stroke:#2E3192;stroke-width:40;stroke-miterlimit:10;}
	.st2{fill:#18194D;}
	.st3{fill:#F26522;}
	.st4{fill:#FFFFFF;}
	.st5{fill:#FCAF17;}
	.st6{fill:#212266;}
</style>
<title>icones</title>
<path class="st0" d="M211.1,364.2H22.5C10.1,364.2,0,354.1,0,341.7l0,0V189.6c0-12.4,10.1-22.5,22.5-22.5h188.6
	c12.4,0,22.5,10.1,22.5,22.5v0v152.1C233.6,354.1,223.5,364.2,211.1,364.2L211.1,364.2z"/>
<path class="st1" d="M129.3,82h-25c-17,0-30.8-13.8-30.8-30.8l0,0c0-17,13.8-30.8,30.8-30.8h25c17,0,30.8,13.8,30.8,30.8l0,0
	C160.1,68.2,146.3,82,129.3,82z"/>
<path class="st2" d="M163.3,336H70.2C31.4,336,0,304.6,0,265.8V117.5c0-38.8,31.4-70.2,70.2-70.2h93.1c38.8,0,70.2,31.4,70.2,70.2
	c0,0,0,0,0,0v148.2C233.6,304.5,202.1,336,163.3,336C163.3,336,163.3,336,163.3,336z"/>
<image style="overflow:visible;opacity:0.5;enable-background:new    ;" width="311" height="427" xlink:href="AF9938A6.png"  transform="matrix(0.47 0 0 0.4689 54.41 80.24)">
</image>
<rect x="57.5" y="82" class="st3" width="136.9" height="191.1"/>
<path class="st4" d="M92.3,135.7c1.5-0.8,1.9-2.9,2.2-4.9c-0.4,0.7-1.2,1.3-2,1.5c-2.9,0.5-4.3-1-5-3.9c-0.9-4.2,0.7-8.2,4.3-8.8
	c2.5-0.4,4.8,0.4,5,1.7c0,0.1,0,0.2,0,0.3c0.2,0,1.6-0.2,1.6,0.4c0.1,2.8,0,5.7-0.2,8.5c-0.4,4.2-1.9,6.5-4.8,7.1
	c-1.4,0.3-2.9,0.2-4.3-0.4c-1.6-0.8-0.8-2.8,0.9-2.9C90.7,135,91.5,135.5,92.3,135.7z M92.9,130.2c1-0.2,1.6-3.4,1.4-5.5
	c-0.2,0-0.4-0.1-0.6-0.2c0.1-0.7,0.1-1.4,0-2.1c-0.1-0.4-0.3-0.8-0.7-0.8c-1.4,0.2-1.6,4.8-1.3,6.9
	C91.8,129.8,92.4,130.3,92.9,130.2L92.9,130.2z"/>
<path class="st4" d="M100.5,119.3c0-0.3,0.3-0.4,0.6-0.4c0.7-0.1,3.8,0,3.6,1.2c-0.4,2.5-0.5,5-0.5,7.6c0.1,0.8,0.4,1.1,0.7,1
	c1.2-0.2,1.4-2.5,1.4-3.3c0,0,2-0.4,2.3,1.2s-1.7,4.2-4.5,4.7c-2.2,0.4-3.9-0.4-4.2-2.7C99.4,126.5,100,121.1,100.5,119.3z
	 M100.5,116c-0.1-0.8,0-3.2,2.1-3.6c1.1-0.2,1.7-0.1,1.6,0.8c0.7,0.1,1.4,0.3,1.5,1c0.1,0.9-0.4,2.7-3.1,3.1
	C101.6,117.6,100.7,117,100.5,116C100.5,116,100.5,116,100.5,116L100.5,116z"/>
<path class="st4" d="M105,118.7c1-0.6,2.1-1,3.3-1.3c0.2-1.2,0.5-2.3,1.1-3.3c0.6-0.4,3.3,0.3,3.3,0.6l-0.2,1.5l0.8-0.2
	c0.8-0.2,1.5-0.4,1.7-0.1c0.4,0.3,0.8,0.5,1.3,0.5c0.4,0.4,0.7,0.8,1,1.3c0,0.1,0,0.4-0.5,0.4c-1.3,0.2-3,0.7-4.7,1.1
	c-0.3,2.3-0.4,4.7-0.3,7c0.1,0.7,0.5,0.9,0.9,0.9c1.8-0.3,2.7-2.7,2.6-3.8c0.9-0.4,1.9,0.1,2.2,1c0.1,0.1,0.1,0.3,0.1,0.4
	c0.4,2.4-2.4,4.5-5.3,5c-2.1,0.5-4.2-0.8-4.8-2.9c0-0.1-0.1-0.3-0.1-0.4c-0.2-1.9-0.1-3.8,0.2-5.7c-0.4,0.1-0.8,0.2-1,0.3
	C105.8,121.2,104.6,119.1,105,118.7z"/>
<path class="st4" d="M118.3,110c1.1-0.4,3.3,0,3.4,0.7c-0.2,1.1-0.9,4.8-0.9,6.3c0.6-1.3,1.1-2.3,2.4-2.5c2-0.4,4.4,1.5,4.8,3.6
	c0.3,2,0,8.7-4.4,9.5c-3.6,0.7-5.8-0.8-6.4-3.9C116.3,119.5,117.7,110.2,118.3,110z M120.9,121.7c-0.1,0.8-0.1,1.6,0,2.4
	c0.1,0.8,0.6,1.4,1.2,1.3c2.1-0.4,1.7-7.3,1.7-7.6c-0.1-0.6-0.1-1.2-0.7-1.2c-1.2,0.2-1.7,3.9-1.6,5.1c-0.1,0-0.2,0.1-0.2,0.1
	L120.9,121.7z"/>
<path class="st4" d="M143.8,119.3c0.2,1.1,0.6,2.4,1.5,2.3c2-0.4,2.2-5.6,1.9-7.3c-0.1-0.8-0.4-1.3-0.9-1.2c-0.2,0-0.4,0.1-0.5,0.2
	c-1.2-0.9-1-2.5,1.2-3c2.6-0.5,3.5,1.6,3.9,4.2s-0.1,8.5-4.9,9.3c-3.9,0.7-5.6-2.4-5.9-5c-0.1-0.9-0.1-1.7,0-2.6l-0.5,0.1
	c-0.1,0-0.3,0-0.4,0c0.1,0.4,0.2,0.8,0.2,1.3c0.1,2.6-0.5,7.1-4.7,7.8c-2.8,0.6-5.5-1.1-6.1-3.8c-0.1-0.3-0.1-0.5-0.1-0.8
	c-0.4-3.1,0.9-6.4,3.3-7.3c0.6,0.2,1.1,0.5,1.6,0.9c0,0,0-1.5,0.9-1.6c2.7-0.5,4,0.3,4.7,1.8c0.2,0,0.4,0,0.6,0
	c0.4-0.1,0.8-0.2,1.1-0.3c0.6-1.8,1.6-3.3,2.9-3.8c0.4,0,0.7,0.2,1,0.4c0.6,1.2,0.2,2.7-0.8,3.5
	C143.4,116.1,143.5,117.7,143.8,119.3z M133.9,123.4c1.9-0.3,1.9-5.4,1.8-6.6c0-0.1,0-0.3,0-0.4c-0.8-0.1-1.5-0.4-2.1-0.9
	c-1.1,1.1-1.5,3.8-1.2,5.7C132.5,122.7,133.1,123.5,133.9,123.4L133.9,123.4z"/>
<path class="st4" d="M152.1,118c-0.3-4.5-0.3-9.1,0.1-13.6c0-0.3,0.2-0.6,0.5-0.8c1-0.1,2,0,3,0.2c0.6,0.1,0.5,0.3,0.5,0.7
	c-0.2,2.7-0.4,6.5-0.5,7.9c1.3-1.6,3.1-4.3,5.3-4.7c1.9-0.3,2.4,1,2.3,1.5c-2,1.4-3.9,3-5.4,4.9c1.6,1.2,4.8,3.7,6.5,5.3
	c0.7,0.6,0.9,0.9,0.5,1.2c-0.7,0.6-1.4,1.1-2.2,1.6c-0.3,0.3-0.8,0.3-1.2,0c-1.9-1.6-4.4-4.2-5.6-5c0.1,1.4,0.3,2.8,0.6,4.2
	c0.1,0.6-0.1,0.8-0.4,0.9c-0.6,0-2.4-0.1-2.6-0.1c-0.7,0-0.8-0.1-0.9-0.6C152.4,120.4,152.2,119.2,152.1,118z"/>
<image style="overflow:visible;opacity:0.5;enable-background:new    ;" width="267" height="373" xlink:href="AF9938AA.png"  transform="matrix(0.4665 0 0 0.4662 11.1 162.62)">
</image>
<path class="st3" d="M129.2,313l-6.7-136.9c-0.3-6.8-6.1-12.1-12.9-11.8c0,0,0,0,0,0L95.4,165l0,0l-47.5,2.4l-21.4,1l0,0L14.1,169
	l4.5,91.3l2.8,58l0,0l15.3-7.2l16.3,18l64.4-3.2C124.2,325.6,129.5,319.8,129.2,313z"/>
<rect x="97.3" y="163.3" transform="matrix(0.9988 -4.902409e-02 4.902409e-02 0.9988 -11.9204 5.2802)" class="st5" width="8.7" height="164.7"/>
<path class="st4" d="M33.2,208.5c0.2-1.4,0.4-2.9,0.4-4.3c0.1-0.7,0.8-1.1,2.1-1.2s1.5,0.5,1.5,0.9c0.1,0.8-0.7,2.6-0.5,4
	c0,0.3,0.3,0.5,0.6,0.5c0,0,0.1,0,0.1,0c1.2-0.3,1.3-2.4,1.4-2.4s1.4-0.3,1.6,0.8c0.4,1.7-0.7,3.4-2.3,3.8c-2.1,0.5-2.8-1-3.1-2.1
	c-0.5,2.6-0.6,5.3-0.2,8c-0.8,0.5-4.3,0.3-4.4-0.2s-0.4-2.9-0.8-7.3c-0.2-1.8-0.6-4.3,0.7-4.6c0.9-0.1,1.7,0,2.6,0.2
	c0.1,1.1,0.1,2.6,0.2,3.9L33.2,208.5z"/>
<path class="st4" d="M42.6,201c1.3-0.3,4,0.1,4.6,2.7c0.7,3-0.6,5.6-2.1,6c-0.8,0.2-1.6-0.1-2.2-0.6c-0.1,1-0.1,2,0.1,2.9
	c0.2,1.1,0.9,1.5,1.7,1.3c2.2-0.5,2.9-3.3,2.9-4.6c0.2-0.2,0.4-0.3,0.6-0.3c1.1-0.2,2,0,2.3,0.9c0.4,1.9-0.7,5.2-4.6,6.1
	c-2.7,0.6-5.9-0.4-6.6-3.3C38.3,207.9,39.1,201.8,42.6,201z M43.4,207.8c0.8-0.2,0.9-2.5,0.6-4c-0.2-0.9-0.3-0.9-0.4-0.9
	s-0.2,0.1-0.2,0.4c-0.3,1.3-0.5,2.7-0.5,4.1C42.9,207.7,43.1,207.9,43.4,207.8C43.4,207.9,43.4,207.9,43.4,207.8L43.4,207.8z"/>
<path class="st4" d="M52.4,203.6c0,0,5.6,0.6,6.5,4.6c0.6,2.6-1.3,4.1-3.7,4.7c-3,0.7-6.5-1.1-6.9-2.9c-0.3-1.3,0.1-3,1.4-3.3
	c0.9-0.2,1.8,0,2.5,0.6c-0.1,1-0.3,1.9-0.5,2.8c0.3,0.6,1,0.9,1.6,0.7c1.1-0.3,1.6-1.3,1.3-2.7c-0.5-2-3.5-3-5.2-2.9
	c-0.7-0.7-1.2-1.6-1.5-2.5c-0.1-1,7.8-4.4,8.3-4.5s1.8,1.4,1.9,1.7c0.2,0.9-1.4,2.6-2.3,2.8c-0.3,0.1-0.6-0.5-0.9-0.4
	c-0.9,0.3-1.8,0.7-2.6,1.3L52.4,203.6z"/>
<path class="st4" d="M66.3,205.8c-0.2,1.2-1,3.7-2.6,4s-4.1-0.9-4.4-2.5c-0.6-2.7-0.6-9.1,0.7-9.4c1-0.3,2.1-0.3,3,0.2
	c-0.3,2.7-0.5,6.9,0.2,8.6h0.3c1.1-1.7,1.6-7.5,1.6-9.8c0-0.2,0.3-0.4,0.9-0.5c1-0.2,2.8,0.3,2.9,0.8c0.1,1.1,0.3,5.6,0.5,7.2
	c0.1,0.9,0.5,1.5,1.1,1.4c0.9-0.2,1-2.7,1-2.7c0.2,0,1.7-0.5,2,0.8s-0.9,3.7-3.4,4.2c-2.6,0.6-3.3-1-3.6-2.4L66.3,205.8z"/>
<path class="st4" d="M77,199.7c-0.5,2.4-0.6,4.8-0.4,7.2c-0.3,0.3-0.7,0.5-1.2,0.7c-1.5,0.5-3.1-0.3-3.6-1.8
	c-0.1-0.2-0.1-0.4-0.1-0.5c-0.9-4-0.7-10.2,0.2-10.4c1.1-0.2,2.8,0.1,2.7,0.5c-0.1,2.1-0.1,4.1,0,6.2h0.1c0.4-2.5,0.7-5.1,1-6.8
	c0-0.2,0.7-0.4,1-0.5c1.8-0.4,3.3,0.1,3.4,0.8c0.1,1.5,0.3,3.8,0.5,5.4h0.1c0.2-2.6,0.7-5.1,1.3-7.6c0.2-0.3,0.6-0.5,1-0.6
	c1.6-0.4,3.7,0.1,3.7,0.9c0.1,2.5-0.5,6.3,0,8.5c0.2,1,0.6,1.5,1.1,1.3c0.8-0.2,1-2,1-2.5c0,0,1.6-0.7,2,0.7c0.2,2-1.2,3.8-3.1,4
	c-2.9,0.7-4.1-0.7-4.4-2.6c-0.1-1.3-0.2-2.7-0.1-4H83c-0.6,2.6-0.7,5.2-0.5,7.8c-0.4,0.3-0.8,0.5-1.3,0.6c-2,0.4-3.1-0.3-3.4-1.9
	c-0.3-1.8-0.6-3.5-0.7-5.3L77,199.7z"/>
<path class="st4" d="M91.8,190.2c0.4,0,0.7,0.1,1,0.4c0.3-0.3,0.7-0.5,1.2-0.6c3.9-0.9,4.9,1.3,5.4,3.7c0.4,2.6,0.3,8.5-4.4,9.6
	c-3.8,0.9-6-2-6.5-4.7C88.2,195.5,89.6,191.1,91.8,190.2z M94.3,201c1.9-0.4,1.6-6.1,1.5-7.3c-0.1-0.6-0.2-2.1-1-1.9
	c-1.2,0.3-1.5,4-1.5,5.3c0,0.1-0.5,0-0.6,0c0,0.5,0,0.9,0,1.4C92.8,200,93.4,201.2,94.3,201z"/>
<path class="st4" d="M104,191.9c0,0,5.6,0.6,6.5,4.6c0.6,2.6-1.3,4.1-3.7,4.7c-3,0.7-6.5-1.1-6.9-2.9c-0.3-1.3,0.1-3,1.4-3.3
	c0.9-0.2,1.8,0,2.5,0.6c-0.1,1-0.3,1.9-0.5,2.8c0.3,0.6,1,0.9,1.6,0.7c1.1-0.3,1.6-1.3,1.3-2.7c-0.5-2-3.5-3-5.2-2.9
	c-0.7-0.7-1.2-1.6-1.5-2.5c-0.1-1,7.8-4.4,8.3-4.5s1.8,1.4,1.9,1.7c0.2,0.9-1.4,2.6-2.3,2.8c-0.3,0.1-0.6-0.5-0.9-0.4
	c-0.9,0.3-1.8,0.7-2.6,1.3L104,191.9z"/>
<image style="overflow:visible;opacity:0.5;enable-background:new    ;" width="229" height="250" xlink:href="AF9938AD.png"  transform="matrix(0.4659 0 0 0.4662 118.34 144.61)">
</image>
<rect x="122.1" y="158" transform="matrix(0.1502 -0.9887 0.9887 0.1502 -53.1155 338.1628)" class="st3" width="96" height="84"/>
<rect x="136.1" y="158.9" transform="matrix(0.1502 -0.9887 0.9887 0.1502 -46.452 333.9848)" class="st5" width="69.9" height="70.1"/>
<path class="st4" d="M140.8,222.4c0,0,5.4,1.6,5.5,5.8c0,2.7-2.1,3.8-4.6,3.9c-3,0.1-6.1-2.4-6.2-4.2c0-1.4,0.8-2.9,2.1-3
	c0.9,0,1.8,0.4,2.4,1.1c-0.3,0.9-0.6,1.8-1,2.6c0.2,0.6,0.8,1,1.4,1c1.2,0,1.8-1,1.8-2.4c0-2.1-2.8-3.6-4.5-3.9
	c-0.5-0.8-0.9-1.8-0.9-2.7c0.1-1,8.5-2.7,9-2.8s1.5,1.7,1.5,2.1c0,0.9-1.9,2.3-2.8,2.3c-0.4,0-0.5-0.6-0.9-0.6
	c-1,0.1-1.9,0.3-2.8,0.7L140.8,222.4z"/>
<path class="st4" d="M147.2,228.3c0.5-5.2,1.4-10.3,2.7-15.4c0-0.2,0.3-0.2,0.5-0.2c0.9,0,3.4,0.9,3.3,1.3
	c-1.3,5.1-2.1,10.3-2.5,15.6c0,0.7-0.1,1.3-0.1,1.9c-0.4,0.4-3.7-0.6-3.9-1C147,229.7,147,229,147.2,228.3z"/>
<path class="st4" d="M154.8,218.8c0.1-0.2,0.4-0.4,0.6-0.3c0.7,0,3.7,0.6,3.3,1.7c-0.7,2.4-1.3,4.9-1.6,7.4c0,0.8,0.2,1.1,0.5,1.1
	c1.2,0,1.8-2.3,1.9-3.1c0,0,2.1-0.1,2.1,1.5s-2.4,3.9-5.2,4c-2.3,0-3.7-1-3.8-3.3C152.6,225.8,154,220.5,154.8,218.8z M155.2,215.6
	c0-0.8,0.5-3.2,2.6-3.3c1.1,0,1.7,0.1,1.5,1c0.7,0.2,1.3,0.5,1.3,1.3s-0.9,2.6-3.5,2.6C156.1,217.3,155.3,216.6,155.2,215.6
	L155.2,215.6z"/>
<path class="st4" d="M168,228.4c-0.5,1-1.5,2.6-3.4,2.7c-3.1,0.1-4.6-2.5-4.6-4.8c-0.1-3.1,1.5-8.6,5.6-8.7c1,0,1.9,0.3,2.7,1
	c0.3-1.5,0.6-3.8,0.7-4.7c0.1-1.1,0.4-1.9,0.9-1.9c0.9,0,3.4,0.3,3.3,1.4c-0.4,3.1-2.2,11.7-2.2,13.8c0,0.7,0.2,1,0.7,1
	c0.9,0,1.5-2,1.6-3.3c0,0,1.9-0.5,2,1.3c0,1.6-2,4-4.8,4.1c-1.2,0.1-2.3-0.8-2.4-2L168,228.4z M164.2,228.7c1,0,2.7-4.9,2.7-5.9
	c-0.2,0-0.5-0.2-0.6-0.4c0.3-0.6,0.5-1.3,0.6-2c0-0.3,0-0.7-0.3-0.7c-1.4,0-2.7,4.8-2.8,7.7C163.8,227.8,163.8,228.8,164.2,228.7z"
	/>
<path class="st4" d="M178.5,216.9c1.4,0,3.9,0.9,4,3.5c0.1,3-1.7,5.4-3.3,5.5c-0.8,0-1.6-0.4-2.1-1.1c-0.3,0.9-0.5,1.9-0.5,2.9
	c0,1.2,0.6,1.6,1.4,1.6c2.2,0,3.5-2.6,3.7-4c0.2-0.1,0.4-0.2,0.6-0.2c1.1,0,2,0.4,2,1.4c0,1.9-1.7,4.9-5.7,5c-2.8,0-5.7-1.5-5.8-4.5
	C173,222.7,175,217,178.5,216.9z M178,223.7c0.8,0,1.4-2.2,1.3-3.8c0-0.9-0.1-1-0.2-0.9s-0.2,0.1-0.3,0.4c-0.6,1.3-1,2.6-1.3,3.9
	C177.5,223.2,177.6,223.7,178,223.7L178,223.7z"/>
<path class="st4" d="M187.7,221.3c0,0,5.4,1.6,5.5,5.8c0,2.7-2.1,3.8-4.6,3.9c-3,0.1-6.1-2.4-6.2-4.2c0-1.4,0.8-2.9,2.1-3
	c0.9,0,1.8,0.4,2.4,1.1c-0.3,0.9-0.6,1.8-1,2.6c0.2,0.6,0.8,1,1.4,1c1.2,0,1.8-1,1.8-2.4c0-2.1-2.8-3.6-4.5-3.9
	c-0.5-0.8-0.9-1.8-0.9-2.7c0.1-1,8.5-2.7,9-2.8s1.5,1.7,1.5,2.1c0,0.9-1.9,2.3-2.8,2.3c-0.4,0-0.5-0.6-0.9-0.6
	c-1,0.1-1.9,0.3-2.8,0.7L187.7,221.3z"/>
<path class="st6" d="M0,240.5V277c0,38.8,31.4,70.2,70.2,70.2h93.1c38.8,0,70.2-31.4,70.2-70.2v-36.5H0z"/>
</svg>
