<svg id="Layer_1" data-name="Layer 1" xmlns="http://www.w3.org/2000/svg" viewBox="0 0 800 800"><defs><style>.cls-1{fill:#2e3192;}.cls-2{fill:#fcaf17;}.cls-3{fill:#f26522;}</style></defs><title>icones</title><path class="cls-1" d="M368.61,393.62a20.45,20.45,0,1,0-20.38-20.38A20.37,20.37,0,0,0,368.61,393.62Z"/><path class="cls-1" d="M426.85,473.32A20.55,20.55,0,0,0,408,485.9h37.62C442.31,478.65,435.33,473.32,426.85,473.32Z"/><path class="cls-1" d="M535.47,514.35A20.45,20.45,0,1,0,514.95,494,20.37,20.37,0,0,0,535.47,514.35Z"/><path class="cls-1" d="M563.39,362.33a10.77,10.77,0,1,0,10.81,10.81A10.73,10.73,0,0,0,563.39,362.33Z"/><path class="cls-1" d="M472,333.3a17.43,17.43,0,0,0-1.15-6.24,31.13,31.13,0,1,0-57.64-22.66c-.41,0-.81-.06-1.22-.06H389.13a17.46,17.46,0,0,0-14.89,8.32q-2.78-.25-5.63-.25a60.24,60.24,0,0,0-34.33,10.71,17.46,17.46,0,0,0-2.72-2.08l-19.7-12.17a17.46,17.46,0,0,0-24,5.67l-19.75,31.93-19.75-31.93a17.46,17.46,0,0,0-24-5.67L204.58,321a17.47,17.47,0,0,0-5.67,24l53.95,87.24-15.33,6.85a17.47,17.47,0,0,0-8.87,23l38.85,88.5a17.47,17.47,0,0,0,16,10.45h0a17.47,17.47,0,0,0,16-10.46l12.45-28.43,12.45,28.43a17.47,17.47,0,0,0,16,10.46h0a17.47,17.47,0,0,0,16-10.45l12.21-27.83A60.79,60.79,0,0,0,426.72,566h3.42a17.47,17.47,0,0,0,17.47-17.47V526.21h11.24a17.39,17.39,0,0,0,5,10.7l15.87,16a17.47,17.47,0,0,0,12.37,5.17h0A17.47,17.47,0,0,0,504.46,553l4.42-4.42a60.78,60.78,0,1,0,26.59-115.41q-1.53,0-3,.07v-7.77c0-.09,0-.18,0-.28a17.39,17.39,0,0,0,16.43-14.52,40,40,0,0,0,14,2.73,17.4,17.4,0,0,0,11.34,4.18h12a17.47,17.47,0,0,0,17.47-17.47V346a17.47,17.47,0,0,0-17.47-17.47h-12a17.4,17.4,0,0,0-11.43,4.26,39.92,39.92,0,0,0-20.08,5.76,17.39,17.39,0,0,0-11.08-4h-12a17.38,17.38,0,0,0-8.65,2.29L503,327.34a17.47,17.47,0,0,0-30.92,11.15Zm17.55,5.18,30,36.25V352.1h9.51a40.17,40.17,0,0,0,2.52,45.67v10l-30-36.25v22.63h-12Zm-35,74.56H431.67V333.3h22.84ZM443.16,299.11a13.68,13.68,0,1,1-13.68,13.68A13.63,13.63,0,0,1,443.16,299.11Zm-54,36.11v-13.4H412V424.4H389.13V411.13a40.92,40.92,0,0,1-20.52,5.33,43.14,43.14,0,0,1-43.22-43.22,43.6,43.6,0,0,1,1.55-11.51l10.29-16.64a17.45,17.45,0,0,0,1.56-3.23,43,43,0,0,1,29.82-12A40.92,40.92,0,0,1,389.13,335.22ZM233.46,323.73l34.61,55.94,34.61-55.94,18.61,11.5a60.79,60.79,0,0,0-10.39,19.23l-42.82,69.25-54.3-87.81ZM340.4,543.62l-28.45-65-28.45,65-38.85-88.5L265.17,446l18.33,41.85,28.45-65,28.45,65L358.73,446l20.52,9.16-1,2.18A60.41,60.41,0,0,0,367,483Zm66.21-34.88a20.65,20.65,0,0,0,20.11,17.1h3.42v22.71h-3.42a43.14,43.14,0,0,1-43.22-43.22V493.84a43.87,43.87,0,0,1,.4-5.85l9.58-21.83a43.34,43.34,0,0,1,76.6,27.68v12.24l-2.67,2.67Zm128.86-58.13a43.29,43.29,0,1,1-28.86,75.5l-14.5,14.5L476.58,525a17.5,17.5,0,0,0,10.1-10.77l5.43-5.43v-83.3h22.84v30.5A40.92,40.92,0,0,1,535.47,450.61Zm50.77-50.52h-12v-7a21.55,21.55,0,0,1-10.81,2.81,22.69,22.69,0,0,1-14.31-5.05V355.38a22.62,22.62,0,0,1,14.31-5.08,21.55,21.55,0,0,1,10.81,2.81V346h12Z"/><path class="cls-2" d="M268.07,379.67l34.61-55.94,19.7,12.17-54.3,87.81-54.3-87.81,19.7-12.17Z"/><path class="cls-2" d="M412,321.81V424.4H389.13V411.13a40.92,40.92,0,0,1-20.52,5.33,43.29,43.29,0,0,1,0-86.58,40.92,40.92,0,0,1,20.52,5.33v-13.4Zm-63.74,51.43a20.45,20.45,0,0,0,40.9,0,20.45,20.45,0,1,0-40.9,0Z"/><path class="cls-2" d="M443.16,326.46a13.68,13.68,0,1,1,13.68-13.68A13.63,13.63,0,0,1,443.16,326.46ZM454.51,413H431.67V333.3h22.84Z"/><path class="cls-2" d="M283.5,487.82l28.45-65,28.45,65L358.73,446l20.52,9.16-38.85,88.5-28.45-65-28.45,65-38.85-88.5L265.17,446Z"/><path class="cls-2" d="M426.72,525.84h3.42v22.71h-3.42a43.14,43.14,0,0,1-43.22-43.22V493.84a43.29,43.29,0,0,1,86.58,0v14.91H406.61A20.65,20.65,0,0,0,426.72,525.84Zm.14-52.52A20.55,20.55,0,0,0,408,485.9h37.62C442.31,478.65,435.33,473.32,426.85,473.32Z"/><path class="cls-2" d="M535.47,450.61a43.29,43.29,0,1,1-28.86,75.5l-14.5,14.5-15.87-16,15.87-15.87v-83.3h22.84v30.5A40.92,40.92,0,0,1,535.47,450.61ZM514.95,494a20.52,20.52,0,1,0,20.52-20.52A20.37,20.37,0,0,0,514.95,494Z"/><path class="cls-3" d="M531.61,407.73l-30-36.25v22.63h-12V338.48l30,36.25V352.1h12Z"/><path class="cls-3" d="M586.24,346v54h-12v-7a21.55,21.55,0,0,1-10.81,2.81,22.81,22.81,0,0,1,0-45.61,21.55,21.55,0,0,1,10.81,2.81V346Zm-33.58,27.09a10.77,10.77,0,0,0,21.55,0,10.77,10.77,0,1,0-21.55,0Z"/></svg>