<svg xmlns="http://www.w3.org/2000/svg" viewBox="2397 26 140.795 98.353"><defs><style>.a{fill:#2e3192;}.b{fill:#fcaf17;}.c{fill:#f26522;}</style></defs><g transform="translate(2064.46 -225.7)"><g transform="translate(332.54 251.7)"><path class="a" d="M520.556,350.442a7.071,7.071,0,1,0-7.056-7.056A7.033,7.033,0,0,0,520.556,350.442Z" transform="translate(-460.952 -311.734)"/><path class="a" d="M591.234,479.9a7.132,7.132,0,0,0-6.534,4.356h13.009A7.128,7.128,0,0,0,591.234,479.9Z" transform="translate(-511.477 -413.635)"/><path class="a" d="M719.185,494.142a7.071,7.071,0,1,0-7.085-7.056A7.033,7.033,0,0,0,719.185,494.142Z" transform="translate(-601.882 -413.706)"/><path class="a" d="M760.617,347.7a3.731,3.731,0,1,0,3.746,3.746A3.712,3.712,0,0,0,760.617,347.7Z" transform="translate(-633.673 -319.823)"/><path class="a" d="M427.89,269.559a5.89,5.89,0,0,0-.407-2.149,10.773,10.773,0,1,0-19.949-7.84c-.145,0-.29-.029-.436-.029h-7.9a6.027,6.027,0,0,0-5.14,2.875c-.639-.058-1.278-.087-1.946-.087a20.924,20.924,0,0,0-11.877,3.688,7.294,7.294,0,0,0-.929-.726l-6.824-4.211a6.026,6.026,0,0,0-8.3,1.975l-6.824,11.035-6.824-11.035a6.026,6.026,0,0,0-8.3-1.975L335.4,265.29a6.011,6.011,0,0,0-1.946,8.3l18.672,30.2-5.314,2.381a6.07,6.07,0,0,0-3.078,7.956l13.445,30.606a6,6,0,0,0,5.517,3.6h0a6,6,0,0,0,5.517-3.63l4.3-9.844,4.3,9.844a6.029,6.029,0,0,0,5.517,3.63h0a6.019,6.019,0,0,0,5.517-3.6l4.211-9.612a21.033,21.033,0,0,0,20.095,14.926h1.191a6.035,6.035,0,0,0,6.04-6.04v-7.724h3.891a5.973,5.973,0,0,0,1.713,3.688l5.488,5.546a6.2,6.2,0,0,0,4.269,1.8h0a6.046,6.046,0,0,0,4.269-1.771l1.539-1.539a20.7,20.7,0,0,0,9.205,2.12,21.009,21.009,0,1,0,0-42.018c-.348,0-.7,0-1.045.029v-2.788a6.187,6.187,0,0,0,1.771-.348,6.042,6.042,0,0,0,3.891-4.675,14.133,14.133,0,0,0,4.849.958,6.037,6.037,0,0,0,3.92,1.452h4.152a6.035,6.035,0,0,0,6.04-6.04V274.03a6.035,6.035,0,0,0-6.04-6.04h-4.152a5.931,5.931,0,0,0-3.949,1.481,13.534,13.534,0,0,0-6.94,2,6.108,6.108,0,0,0-3.833-1.365h-4.152a6.121,6.121,0,0,0-2.991.784l-2.759-3.31a5.962,5.962,0,0,0-4.646-2.178,6.4,6.4,0,0,0-2.062.348,6.058,6.058,0,0,0-3.978,5.691Z" transform="translate(-332.54 -251.7)"/></g><g transform="translate(338.597 257.711)"><g transform="translate(0 0)"><path class="b" d="M372.188,321.139,384.152,301.8l6.824,4.211-18.788,30.374L353.4,306.011l6.824-4.211Z" transform="translate(-353.4 -293.263)"/><path class="b" d="M516.238,299.5v35.485h-7.9V330.4a14.082,14.082,0,0,1-7.085,1.858,14.969,14.969,0,0,1,0-29.938,14,14,0,0,1,7.085,1.858v-4.646h7.9ZM494.2,317.271a7.071,7.071,0,1,0,7.056-7.085A7.009,7.009,0,0,0,494.2,317.271Z" transform="translate(-447.708 -291.631)"/><path class="b" d="M615.033,281.867a4.733,4.733,0,1,1,4.733-4.733A4.716,4.716,0,0,1,615.033,281.867Zm3.92,29.938h-7.9V284.219h7.9Z" transform="translate(-535.701 -272.4)"/></g><g transform="translate(10.657 42.773)"><path class="b" d="M403.574,442.176l9.844-22.476,9.844,22.476,6.33-14.461,7.085,3.165-13.445,30.606-9.844-22.476-9.844,22.476L390.1,430.88l7.085-3.165Z" transform="translate(-390.1 -419.7)"/><path class="b" d="M570.455,478.747h1.191v7.84h-1.191A14.933,14.933,0,0,1,555.5,471.633v-3.978a14.969,14.969,0,0,1,29.938,0v5.169H563.486A7.175,7.175,0,0,0,570.455,478.747Zm.058-18.149a7.132,7.132,0,0,0-6.534,4.356h13.009A7.128,7.128,0,0,0,570.513,460.6Z" transform="translate(-507.471 -443.117)"/><path class="b" d="M686.472,431.511a14.969,14.969,0,1,1-9.989,26.105l-4.995,5.024L666,457.094l5.488-5.488V422.8h7.9v10.541A14.284,14.284,0,0,1,686.472,431.511Zm-7.085,15.013a7.085,7.085,0,1,0,7.085-7.085A7.052,7.052,0,0,0,679.387,446.524Z" transform="translate(-585.883 -421.9)"/></g></g><g transform="translate(433.959 271.33)"><path class="c" d="M696.348,343.257l-10.4-12.545v7.811H681.8V319.3l10.4,12.545v-7.811h4.152Z" transform="translate(-681.8 -319.3)"/><path class="c" d="M758.368,328.229V346.9h-4.152v-2.41a7.639,7.639,0,0,1-3.746.958,7.884,7.884,0,0,1,0-15.768,7.639,7.639,0,0,1,3.746.958V328.2h4.152Zm-11.586,9.379a3.731,3.731,0,1,0,3.717-3.746A3.706,3.706,0,0,0,746.781,337.608Z" transform="translate(-724.945 -325.616)"/></g></g></svg>