<svg xmlns="http://www.w3.org/2000/svg" xmlns:xlink="http://www.w3.org/1999/xlink" viewBox="0 0 814.64 348.74"><defs><style>.cls-1{fill:none;}.cls-2{clip-path:url(#clip-path);}.cls-3{fill:url(#linear-gradient);}.cls-4{clip-path:url(#clip-path-2);}.cls-5{fill:url(#linear-gradient-2);}.cls-6{clip-path:url(#clip-path-3);}.cls-7{fill:url(#linear-gradient-3);}.cls-8{clip-path:url(#clip-path-4);}.cls-9{fill:url(#linear-gradient-4);}.cls-10{clip-path:url(#clip-path-5);}.cls-11{fill:url(#linear-gradient-5);}.cls-12{clip-path:url(#clip-path-6);}.cls-13{fill:url(#linear-gradient-6);}.cls-14{clip-path:url(#clip-path-7);}.cls-15{fill:url(#linear-gradient-7);}.cls-16{clip-path:url(#clip-path-8);}.cls-17{fill:url(#linear-gradient-8);}.cls-18{clip-path:url(#clip-path-9);}.cls-19{fill:url(#linear-gradient-9);}.cls-20{clip-path:url(#clip-path-10);}.cls-21{fill:url(#linear-gradient-10);}.cls-22{clip-path:url(#clip-path-11);}.cls-23{fill:url(#linear-gradient-11);}.cls-24{clip-path:url(#clip-path-12);}.cls-25{fill:url(#linear-gradient-12);}</style><clipPath id="clip-path"><path class="cls-1" d="M608.5,167c-23.65,7.67-47.37,20.09-59.05,43.06a107.45,107.45,0,0,0-7.66,21.33,61.37,61.37,0,0,0,5.45,45.92C554.6,291.22,568.36,301,581.1,306c39.34,15.63,98.55,2,117.22-39.73,4.67-10.44,6.85-31.2,1-41.65-8.42-16.29-34.31-26.54-55-25.35-21.41.95-42.65,9.4-54.53,23.87-12,14-12.09,32.57-1.45,43.76,10.94,11.73,26.41,13,34.74,12.85,16.13-.39,30.4-6.86,38.56-16.89,7.9-9.82,8.18-22.82-.9-31.1-9.61-8.3-24.14-7.86-33.44-3.21-10.11,4-16.1,15.45-9.48,22.06-1.59-8.29,7-13.06,13.31-13.43,6.88-1,12.38,2,13.21,4.66,2.39,5.88-4.69,15.41-20.56,15.86-3.69.1-9.73-.78-12.76-4.36-3.49-3.52-4.52-11.42,1.63-18.62,5.47-7.2,18.33-12.62,31.58-13.25s25.31,4.46,29.66,13c8.6,16.9-2.14,33.82-16,43.6-16.71,11.78-32.68,14.51-52.55,11.15a54.06,54.06,0,0,1-18-6.66,39.19,39.19,0,0,1-14.7-15,43.33,43.33,0,0,1-3.76-32.63c3.71-14,8.8-26.78,20.9-35.42,24.49-17.42,63.43-23.28,91.59-12.52,15.32,5.89,28.93,18.66,44.32,23.26-5-21.31-27.27-40.21-47.42-45.68a114.09,114.09,0,0,0-29.76-3.8,131,131,0,0,0-40,6.28"/></clipPath><linearGradient id="linear-gradient" x1="-34.99" y1="479.24" x2="-33.99" y2="479.24" gradientTransform="matrix(21.48, 128.75, -162, 23.89, 79006.88, -6765.57)" gradientUnits="userSpaceOnUse"><stop offset="0" stop-color="#eb5c28"/><stop offset="1" stop-color="#f8ad3c"/></linearGradient><clipPath id="clip-path-2"><path class="cls-1" d="M508.59,96.08c-16.22,7.65,7.87,37.72,13.73,44.79,15.59,18.74,26.72,35.46,31.91,32.38s-2.62-21.52-13-43.54c-2.82-6-8.75-20.18-16.47-28.44-3.49-3.75-7.36-6.27-11.49-6.27a10.7,10.7,0,0,0-4.64,1.09"/></clipPath><linearGradient id="linear-gradient-2" x1="-34.99" y1="479.24" x2="-33.99" y2="479.24" gradientTransform="matrix(0, 75.26, -75.26, 0, 36591.61, 2738.32)" gradientUnits="userSpaceOnUse"><stop offset="0" stop-color="#cfe0a2"/><stop offset="0.5" stop-color="#a8cd7a"/><stop offset="1" stop-color="#76b342"/></linearGradient><clipPath id="clip-path-3"><path class="cls-1" d="M560.18,41.54c-10,.13-12,13.29-11.83,20.92.38,13.06,4.25,26.55,8.61,38.77,10.44,29.13,16.48,53.94,23.92,52.54s6-26.85,3-57.65a241.23,241.23,0,0,0-5.44-33.69,49,49,0,0,0-2.33-7.28c-2.86-7-7.79-13.61-15.85-13.61Z"/></clipPath><linearGradient id="linear-gradient-3" x1="-34.99" y1="479.24" x2="-33.99" y2="479.24" gradientTransform="matrix(49.12, 81.9, -80.49, 49.37, 40837.64, -20732.01)" gradientUnits="userSpaceOnUse"><stop offset="0" stop-color="#f9e29e"/><stop offset="0.06" stop-color="#f9e094"/><stop offset="0.17" stop-color="#fadb7a"/><stop offset="0.31" stop-color="#fbd250"/><stop offset="0.48" stop-color="#fdc716"/><stop offset="0.5" stop-color="#fdc50d"/><stop offset="1" stop-color="#f4a81c"/></linearGradient><clipPath id="clip-path-4"><path class="cls-1" d="M664.22,69.52C658,86,653.28,103.32,648.58,120.26c-1.21,4.45-5.9,16.81.25,19.63,6.9,3.19,20.48-18.33,36-45.15,3.62-6.29,7.07-12.69,10.2-19.24,2.07-4.32,5.51-11.43,7.36-18.58,2.32-9,2.11-18-6.7-21.33a12.78,12.78,0,0,0-4.57-.86c-14.06,0-23.22,25-26.89,34.78"/></clipPath><linearGradient id="linear-gradient-4" x1="-34.99" y1="479.24" x2="-33.99" y2="479.24" gradientTransform="matrix(-7.6, 95.19, -94.19, -6.58, 45550.83, 6527.94)" gradientUnits="userSpaceOnUse"><stop offset="0" stop-color="#cf74a9"/><stop offset="0.26" stop-color="#c84b97"/><stop offset="0.5" stop-color="#c02184"/><stop offset="1" stop-color="#962b87"/></linearGradient><clipPath id="clip-path-5"><path class="cls-1" d="M748.76,204.22c-6.82,4.7-41.33,23.39-35.76,34.58,3.44,6.85,22.09,1.34,44.3-6.55,12.47-4.41,36.55-18.56,36.55-18.56-4.22-12.74-12.43-17.92-21.87-17.92-7.43,0-15.62,3.21-23.22,8.46"/></clipPath><linearGradient id="linear-gradient-5" x1="-34.99" y1="479.24" x2="-33.99" y2="479.24" gradientTransform="matrix(-43.55, 56.82, -59, -64.7, 27521.91, 33187.49)" gradientUnits="userSpaceOnUse"><stop offset="0" stop-color="#f29054"/><stop offset="0.5" stop-color="#ee7724"/><stop offset="1" stop-color="#d06329"/></linearGradient><clipPath id="clip-path-6"><path class="cls-1" d="M621.9,11.59c-19.73,2.06-18,40.24-18.1,53.27-.1,17.24,1.42,34.48,2.79,51.64.38,4.83-.41,31,7.91,31.61,8,.53,13.58-29.37,19-66,1.47-9.92,2.58-19.87,3.22-29.88.38-6.39,1.15-13.36.46-20A33.31,33.31,0,0,0,635.33,24c-1.95-5.19-6.19-12.5-12.56-12.5-.29,0-.57,0-.87,0"/></clipPath><linearGradient id="linear-gradient-6" x1="-34.99" y1="479.24" x2="-33.99" y2="479.24" gradientTransform="matrix(27.55, 109.2, -95.7, 33.68, 47433.18, -12290.79)" gradientUnits="userSpaceOnUse"><stop offset="0" stop-color="#35beed"/><stop offset="0.5" stop-color="#31a7df"/><stop offset="1" stop-color="#2190ce"/></linearGradient><clipPath id="clip-path-7"><path class="cls-1" d="M34.71,168.45c0-11.12,3.53-19.79,14.38-19.79s14.36,8.67,14.36,19.79v12.2H34.71ZM0,184.17v30.65c0,37.41,5.43,61.53,50.44,61.53,26.84,0,45-16,45-42.55,0-13-7-16.28-16.82-16.28-9.21,0-15.71,3.27-16.26,17.63-.26,7.87-5.69,15.19-12.73,15.19-13.55,0-14.92-13.83-14.92-31.45V204H78.09c16.81,0,18.43-10.31,18.43-23.59,0-38.5-11.65-57.75-46.08-57.75C5.43,122.63,0,146.76,0,184.17"/></clipPath><linearGradient id="linear-gradient-7" x1="-34.99" y1="479.24" x2="-33.99" y2="479.24" gradientTransform="translate(3377.49 -46053.39) scale(96.51)" gradientUnits="userSpaceOnUse"><stop offset="0" stop-color="#a8cd7a"/><stop offset="1" stop-color="#76b342"/></linearGradient><clipPath id="clip-path-8"><path class="cls-1" d="M118.81,210.46V191.22c0-32.25,3-41.2,14.1-41.2,7.87,0,16.27,6,16.27,35.51v27.65c0,20.88-3.52,35.8-16.54,35.8-12.19,0-13.83-14.1-13.83-38.52M149.17,93.89v45.82h-.54c-6-11.12-17.08-17.09-29.28-17.09-29.82,0-35.24,27.11-35.24,57.22v39.31c0,30.1,5.42,57.19,35.24,57.19,12.47,0,23.32-5.41,29.28-17.07h.54c0,9.77,6.78,17.07,16.54,17.07,10,0,16.54-6.23,16.54-19.78V93.89c0-13.55-6.51-19.79-16.54-19.79s-16.54,6.24-16.54,19.79"/></clipPath><linearGradient id="linear-gradient-8" x1="-34.99" y1="479.24" x2="-33.99" y2="479.24" gradientTransform="translate(3518.8 -46861.01) scale(98.15)" gradientUnits="userSpaceOnUse"><stop offset="0" stop-color="#fdc50d"/><stop offset="1" stop-color="#f4a81c"/></linearGradient><clipPath id="clip-path-9"><path class="cls-1" d="M233.74,142.43v78.89c0,18.44-5.7,26.3-17.35,26.3-8.15,0-12.74-4.6-12.74-15.46V142.43c0-13.55-6.52-19.8-16.55-19.8s-16.54,6.25-16.54,19.8V240c0,24.93,13.29,36.31,31.72,36.31,12.75,0,25.49-6.23,30.9-19h.55c0,12.74,6.5,19,16.53,19s16.54-6.23,16.54-19.78V142.43c0-13.55-6.51-19.8-16.54-19.8s-16.53,6.25-16.53,19.8"/></clipPath><linearGradient id="linear-gradient-9" x1="-34.99" y1="479.24" x2="-33.99" y2="479.24" gradientTransform="translate(3539.02 -45929.91) scale(96.26)" gradientUnits="userSpaceOnUse"><stop offset="0" stop-color="#31a7df"/><stop offset="1" stop-color="#2190ce"/></linearGradient><clipPath id="clip-path-10"><path class="cls-1" d="M456.6,214.54v-29C456.6,156,465,150,472.87,150,484,150,487,159,487,191.22v20.61c0,24.4-1.62,38.51-13.84,38.51-13,0-16.53-14.91-16.53-35.79m.55-72.11h-.55c0-13.55-6.5-19.8-16.53-19.8s-16.54,6.25-16.54,19.8V309.15c0,13.56,6.51,19.79,16.54,19.79s16.53-6.23,16.53-19.79V259.81h.55c6,11.12,16.8,16.53,29.28,16.53,29.82,0,35.25-27.1,35.25-57.19V179.84c0-30.1-5.42-57.22-35.25-57.22-11.39,0-23.59,7.05-29.28,19.8"/></clipPath><linearGradient id="linear-gradient-10" x1="-34.99" y1="479.24" x2="-33.99" y2="479.24" gradientTransform="translate(3858.05 -46808.23) scale(98.14)" gradientUnits="userSpaceOnUse"><stop offset="0" stop-color="#be292e"/><stop offset="0.68" stop-color="#d72529"/><stop offset="1" stop-color="#e52327"/></linearGradient><clipPath id="clip-path-11"><path class="cls-1" d="M371.62,233c0-12.48,2.71-17.63,17.35-27.94l11.66-8.13v26c0,15.46-6.52,27.39-17.36,27.39-7,0-11.65-6.25-11.65-17.35m-33.07-71.32c0,10,10,13.57,17.35,13.57,8.67,0,14.9-4.07,15.72-10.57,1.36-11.66,4.88-17.36,16.26-17.36,8.41,0,12.75,6.77,12.75,14.63,0,6.24-3.27,11.67-10.58,15.45L360.5,192.86c-17.34,9.22-23.59,22-23.59,44.18,0,27.65,14.64,39.3,34.18,39.3,11.91,0,24.12-5.14,30.09-18.43l.54-.26c0,14.36,8.4,18.69,17.35,18.69,10.56,0,16.53-4.34,16.53-13,0-4.61-1.9-12.47-1.9-22V166c0-23.86-4.87-43.38-49.08-43.38-25.48,0-46.08,13.56-46.08,39"/></clipPath><linearGradient id="linear-gradient-11" x1="-34.99" y1="479.24" x2="-33.99" y2="479.24" gradientTransform="translate(3790.47 -47095.23) scale(98.69)" xlink:href="#linear-gradient"/><clipPath id="clip-path-12"><path class="cls-1" d="M257.67,186.06v26.85c0,35.24,4.34,63.43,48.52,63.43,39,0,45.82-30.88,45.82-45.55,0-12.19-6.51-19.24-16.28-19.24-10.56,0-16,5.15-16.8,23.86-.27,11.66-6.24,14.91-12.47,14.91-10.58,0-14.09-10.3-14.09-34.71V183.1c0-19.52.81-34.44,14.09-34.44,7.05,0,12.47,4.88,12.47,14.1,0,13.56,5.69,18.71,16.8,18.71,9.23,0,16.28-5.71,16.28-18.71,0-13.28-7.86-40.13-45.82-40.13-44.18,0-48.52,28.2-48.52,63.44"/></clipPath><linearGradient id="linear-gradient-12" x1="-35" y1="479.24" x2="-34" y2="479.24" gradientTransform="translate(3559.43 -45016.08) scale(94.35)" gradientUnits="userSpaceOnUse"><stop offset="0" stop-color="#c02184"/><stop offset="1" stop-color="#962b87"/></linearGradient></defs><title>Asset 1</title><g id="Layer_2" data-name="Layer 2"><g id="Layer_1-2" data-name="Layer 1"><g class="cls-2"><polygon class="cls-3" points="511.32 164.62 542.04 348.74 751.88 317.8 721.16 133.68 511.32 164.62"/></g><g class="cls-4"><rect class="cls-5" x="473.2" y="84.02" width="105.43" height="103.27" transform="translate(90.32 460.07) rotate(-51.14)"/></g><g class="cls-6"><polygon class="cls-7" points="498.31 72.09 558.95 173.19 638.15 124.61 577.52 23.52 498.31 72.09"/></g><g class="cls-8"><polygon class="cls-9" points="643.01 30.42 634.07 142.48 704.34 147.39 713.29 35.33 643.01 30.42"/></g><g class="cls-10"><polygon class="cls-11" points="746.9 144.27 686.66 222.86 754.39 297.13 814.64 218.54 746.9 144.27"/></g><g class="cls-12"><polygon class="cls-13" points="570.4 22.72 605.08 160.18 669.65 137.46 634.98 0 570.4 22.72"/></g><g class="cls-14"><rect class="cls-15" y="122.63" width="96.52" height="153.72"/></g><g class="cls-16"><rect class="cls-17" x="84.11" y="74.11" width="98.15" height="202.24"/></g><g class="cls-18"><rect class="cls-19" x="170.56" y="122.63" width="96.25" height="153.72"/></g><g class="cls-20"><rect class="cls-21" x="423.53" y="122.63" width="98.14" height="206.31"/></g><g class="cls-22"><rect class="cls-23" x="336.9" y="122.63" width="98.69" height="153.72"/></g><g class="cls-24"><rect class="cls-25" x="257.67" y="122.63" width="94.35" height="153.72"/></g></g></g></svg>