<svg xmlns="http://www.w3.org/2000/svg" viewBox="2266.782 1304.522 121.051 19.978"><defs><style>.a{fill:#2dbdb6;}.b{fill:#ed1164;}.c{fill:#f47920;}.d{fill:#faa61a;}</style></defs><g transform="translate(1863 13)"><g transform="translate(431.306 1293.926)"><g transform="translate(0 0)"><g transform="translate(64.187 14.82)"><rect class="a" width="29.09" height="2.754"/></g><g transform="translate(0 0)"><path class="b" d="M52.7,17.166V5.4h2.8c2.854,0,5.958.35,5.958,4.056,0,2.353-1.8,3.955-4.556,3.955a6.135,6.135,0,0,1-.9-.05v3.855H52.7ZM56,10.757h.551c.851,0,1.6-.35,1.6-1.4,0-.851-.5-1.3-1.7-1.3H56Z" transform="translate(-52.7 -5.1)"/><path class="b" d="M76.4,12.66v4.406H73.1V5.35s1.6-.05,3.355-.05c2.954,0,5.307.551,5.307,3.3a3.282,3.282,0,0,1-2.153,3.2,2.217,2.217,0,0,1,.851,1c.651,1.352,1.9,4.306,1.9,4.306H78.808l-1.9-4.456ZM76.855,7.9H76.4v2.453s.05.05.35.05c.751,0,1.652-.15,1.652-1.252C78.457,8.3,77.957,7.9,76.855,7.9Z" transform="translate(-62.886 -5.05)"/><path class="b" d="M93.8,5.4h7.06V8.154H97.155V9.906h3.355V12.56H97.155v1.9h3.705v2.754H93.8Z" transform="translate(-73.222 -5.1)"/><path class="b" d="M116.57,8.956c0-.951-.451-1.4-1.1-1.4s-1.1.4-1.152,1.252c-.05,1.152-.05,2.9,0,4.206.05.9.451,1.352,1.1,1.352a1.246,1.246,0,0,0,1.2-1.4l3.054.1c0,2.4-1.652,4.056-4.356,4.056-2.5,0-4.306-1.452-4.356-3.955q-.075-2.7,0-4.506c.1-2.553,2.2-3.855,4.456-3.855,2.3,0,4.256,1.3,4.156,4.056Z" transform="translate(-81.773 -4.8)"/><path class="b" d="M134.6,17.166h-3.3V5.4h3.3Z" transform="translate(-91.946 -5.1)"/><path class="b" d="M147.15,13.712c0-.5-.451-.9-2.253-1.5-1.7-.551-3.1-1.552-3.1-3.6,0-2.5,2.053-3.705,4.306-3.705s4.256,1.2,4.156,4.056l-3.054.1c0-1-.4-1.4-1.1-1.4-.5,0-.951.25-.951.751,0,.6.35.9,2.253,1.552,1.8.651,3.1,1.452,3.1,3.705,0,2.2-1.853,3.555-4.306,3.555-2.353,0-4.556-1.252-4.406-4.056l3.054-.1a1.228,1.228,0,0,0,1.352,1.4C146.75,14.413,147.15,14.213,147.15,13.712Z" transform="translate(-97.182 -4.85)"/><path class="b" d="M166.559,15.063h-2.8l-.4,2.053H160.1l2.654-11.065V5.4h4.907l2.7,11.766h-3.4Zm-2.3-2.654h1.8l-.651-3.5-.25-1.5-.25,1.5Z" transform="translate(-106.327 -5.1)"/></g><g transform="translate(64.781 0.05)"><path class="a" d="M187.45,13.712c0-.5-.451-.9-2.253-1.5-1.7-.551-3.1-1.552-3.1-3.6,0-2.5,2.053-3.705,4.306-3.705s4.256,1.2,4.156,4.056l-3.054.1c0-1-.4-1.4-1.1-1.4-.5,0-.951.25-.951.751,0,.6.35.9,2.253,1.552,1.8.651,3.1,1.452,3.1,3.705,0,2.2-1.853,3.555-4.306,3.555-2.353,0-4.556-1.252-4.406-4.056l3.054-.1a1.228,1.228,0,0,0,1.352,1.4C187.1,14.413,187.45,14.213,187.45,13.712Z" transform="translate(-182.085 -4.9)"/><path class="a" d="M202.8,5.4h7.06V8.154h-3.705V9.906h3.355V12.56h-3.355v1.9h3.705v2.754H202.8Z" transform="translate(-192.429 -5.15)"/><path class="a" d="M224.3,12.66v4.406H221V5.35s1.6-.05,3.355-.05c2.954,0,5.307.551,5.307,3.3a3.282,3.282,0,0,1-2.153,3.2,2.217,2.217,0,0,1,.851,1c.651,1.352,1.9,4.306,1.9,4.306h-3.555l-1.853-4.406H224.3Zm.451-4.756H224.3v2.453s.05.05.35.05c.751,0,1.652-.15,1.652-1.252C226.307,8.3,225.857,7.9,224.755,7.9Z" transform="translate(-201.516 -5.1)"/></g></g></g><g transform="translate(403.782 1291.522)"><path class="a" d="M18.215,0H0L9.134,9.134Z"/><path class="c" d="M0,26.081H18.215L9.134,17Z" transform="translate(0 -7.866)"/><path class="d" d="M26.081,18.215V0L17,9.134Z" transform="translate(-7.866)"/><path class="b" d="M0,0V18.215L9.134,9.134Z"/></g></g></svg>